<svg xmlns="http://www.w3.org/2000/svg" viewBox="0 0 64 64" width="64" height="64">
  <circle cx="32" cy="32" r="26" fill="#F4C542" opacity="0.25"/>
  <!-- Wooden Stall Roof / Canopy -->
  <path d="M 12 24 L 32 10 L 52 24 Z" fill="#E0533C" stroke="#8A2E1F" stroke-width="2"/>
  <rect x="14" y="24" width="36" height="4" fill="#F4C542" stroke="#8A2E1F" stroke-width="1.5"/>
  <!-- Wooden Table / Counter -->
  <rect x="16" y="40" width="32" height="12" rx="2" fill="#8A5A2E" stroke="#5E3A1A" stroke-width="2"/>
  <!-- Spice Jars on Counter -->
  <rect x="20" y="32" width="6" height="8" rx="1" fill="#FFF" stroke="#5E3A1A" stroke-width="1.2"/>
  <rect x="21" y="34" width="4" height="4" fill="#E0533C"/>
  
  <rect x="29" y="30" width="6" height="10" rx="1" fill="#FFF" stroke="#5E3A1A" stroke-width="1.2"/>
  <rect x="30" y="33" width="4" height="5" fill="#F4C542"/>

  <rect x="38" y="32" width="6" height="8" rx="1" fill="#FFF" stroke="#5E3A1A" stroke-width="1.2"/>
  <rect x="39" y="34" width="4" height="4" fill="#2E7D32"/>
  
  <!-- Hanging Chili Peppers -->
  <path d="M 22 28 Q 20 32 24 34 Q 23 30 22 28" fill="#E0533C"/>
  <path d="M 42 28 Q 40 32 44 34 Q 43 30 42 28" fill="#E0533C"/>
</svg>
