<svg xmlns="http://www.w3.org/2000/svg" viewBox="0 0 64 64" width="64" height="64">
  <ellipse cx="32" cy="57" rx="22" ry="4" fill="#000" opacity="0.12"/>
  <g fill="#FFE9A8">
    <circle cx="20" cy="14" r="2.5"/>
    <circle cx="32" cy="8" r="3"/>
    <circle cx="44" cy="13" r="2.5"/>
  </g>
  <path d="M10 26 Q8 8 32 8 Q56 8 54 26 L48 24 Q46 14 32 14 Q18 14 16 24 Z" fill="#A9743F" stroke="#7B4A2D" stroke-width="2.5"/>
  <rect x="8" y="30" width="48" height="26" rx="6" fill="#8F5A38"/>
  <path d="M12 30 h40 q-4 -8 -20 -8 q-16 0 -20 8 Z" fill="#F4C542"/>
  <circle cx="24" cy="27" r="3.5" fill="#FFE28A"/>
  <circle cx="38" cy="26" r="3.5" fill="#FFE28A"/>
  <circle cx="31" cy="29" r="3.5" fill="#F0CA6B"/>
  <rect x="14" y="34" width="5" height="22" fill="#C8963B" rx="2"/>
  <rect x="45" y="34" width="5" height="22" fill="#C8963B" rx="2"/>
</svg>
