<svg xmlns="http://www.w3.org/2000/svg" viewBox="0 0 64 64" width="64" height="64">
  <!-- Glow -->
  <circle cx="32" cy="32" r="26" fill="#FF85A1" opacity="0.3"/>
  <!-- Narutomaki Star/Zig-Zag Outer Edge -->
  <path d="M32 6 L36 12 L43 8 L44 15 L52 14 L50 21 L58 24 L52 29 L58 35 L52 38 L56 45 L49 46 L50 53 L43 51 L40 58 L34 52 L28 58 L25 51 L18 53 L19 46 L12 45 L16 38 L10 35 L16 29 L10 24 L18 21 L16 14 L24 15 L25 8 L32 12 Z" fill="#FFFFFF" stroke="#D1D5DB" stroke-width="2"/>
  <circle cx="34" cy="33" r="18" fill="#FFF"/>
  <!-- Pink Swirl in Center -->
  <path d="M34 20 C42 20 48 26 48 34 C48 42 42 48 34 48 C26 48 20 42 20 34 C20 28 24 24 30 24 C36 24 38 28 38 34 C38 38 34 40 32 40 C30 40 28 38 28 36" fill="none" stroke="#FF4D6D" stroke-width="4.5" stroke-linecap="round"/>
  <!-- Sparkles -->
  <circle cx="22" cy="18" r="2" fill="#FF85A1"/>
  <circle cx="46" cy="44" r="2" fill="#FF85A1"/>
</svg>
