<svg xmlns="http://www.w3.org/2000/svg" viewBox="0 0 64 64" width="64" height="64">
  <!-- Glow -->
  <circle cx="32" cy="32" r="26" fill="#E0533C" opacity="0.25"/>
  <!-- Chashu Round Slice Outer -->
  <circle cx="32" cy="32" r="22" fill="#A8574B" stroke="#6E352C" stroke-width="2.5"/>
  <!-- Inner Meat & Fat Swirl -->
  <circle cx="32" cy="32" r="18" fill="#D98880"/>
  <path d="M32 14 A18 18 0 0 1 50 32 A14 14 0 0 1 36 46 A10 10 0 0 1 26 36 A6 6 0 0 1 32 30" fill="none" stroke="#FADBD8" stroke-width="4" stroke-linecap="round"/>
  <path d="M32 18 A14 14 0 0 1 46 32 A10 10 0 0 1 36 42 A6 6 0 0 1 30 36" fill="none" stroke="#A8574B" stroke-width="3" stroke-linecap="round"/>
  <!-- Grill Marks -->
  <line x1="16" y1="24" x2="48" y2="24" stroke="#5E261F" stroke-width="2.5" opacity="0.6"/>
  <line x1="14" y1="34" x2="50" y2="34" stroke="#5E261F" stroke-width="2.5" opacity="0.6"/>
  <line x1="20" y1="44" x2="44" y2="44" stroke="#5E261F" stroke-width="2.5" opacity="0.6"/>
  <circle cx="24" cy="22" r="2" fill="#FFF" opacity="0.4"/>
</svg>
