<svg xmlns="http://www.w3.org/2000/svg" viewBox="0 0 64 64" width="64" height="64">
  <rect x="29" y="34" width="6" height="26" rx="2" fill="#8A5A2E"/>
  <path d="M14 18 h30 a12 12 0 0 1 0 24 h-30 a12 12 0 0 1 0 -24 Z" fill="#D96A50"/>
  <path d="M14 18 a12 12 0 0 0 0 24 h6 a12 12 0 0 1 0 -24 Z" fill="#B8563F"/>
  <rect x="26" y="24" width="16" height="12" rx="2" fill="#FFF3D6" stroke="#D4A63F" stroke-width="2"/>
  <path d="M26 25 l8 6 l8 -6" fill="none" stroke="#D4A63F" stroke-width="2"/>
  <rect x="46" y="6" width="4" height="14" fill="#F0CA6B"/>
  <path d="M50 6 l10 3 l-10 5 Z" fill="#E4574C"/>
</svg>
