<svg xmlns="http://www.w3.org/2000/svg" viewBox="0 0 64 64" width="64" height="64">
  <!-- Glow -->
  <circle cx="32" cy="32" r="26" fill="#F4C542" opacity="0.3"/>
  <!-- Egg Outer (Soy marinated brown) -->
  <path d="M32 6 C18 6 14 24 14 36 C14 48 22 58 32 58 C42 58 50 48 50 36 C50 24 46 6 32 6 Z" fill="#8A5A2E" stroke="#5E3A1A" stroke-width="2.5"/>
  <!-- Egg White (Soft cream) -->
  <path d="M32 10 C20 10 17 26 17 36 C17 46 24 54 32 54 C40 54 47 46 47 36 C47 26 44 10 32 10 Z" fill="#FFF8E7"/>
  <!-- Gooey Yolk (Vibrant Orange-Yellow) -->
  <circle cx="32" cy="36" r="12" fill="#F48C06"/>
  <circle cx="32" cy="36" r="9" fill="#FFBA08"/>
  <circle cx="29" cy="33" r="3" fill="#FFF" opacity="0.8"/>
  <!-- Spice garnish speckles -->
  <circle cx="34" cy="38" r="1" fill="#8A2E1F"/>
  <circle cx="36" cy="34" r="1" fill="#2B5F75"/>
</svg>
