<svg xmlns="http://www.w3.org/2000/svg" viewBox="0 0 2000 1400" width="2000" height="1400">
  <defs>
    <linearGradient id="water" x1="0" y1="0" x2="0" y2="1">
      <stop offset="0" stop-color="#45C7DF"/>
      <stop offset="1" stop-color="#2596BE"/>
    </linearGradient>
    <linearGradient id="thatch" x1="0" y1="0" x2="0" y2="1">
      <stop offset="0" stop-color="#F0CA6B"/>
      <stop offset="1" stop-color="#D4A63F"/>
    </linearGradient>
    <radialGradient id="lanternGlow" cx="0.5" cy="0.5" r="0.5">
      <stop offset="0" stop-color="#FFE9A8" stop-opacity="0.9"/>
      <stop offset="1" stop-color="#FFE9A8" stop-opacity="0"/>
    </radialGradient>

    <!-- Sakura petals -->
    <g id="petal"><path d="M0 0 C3 -4 8 -3 8 1 C8 5 3 6 0 3 Z" fill="#F6A8C8"/></g>
    <g id="petalLight"><path d="M0 0 C3 -4 8 -3 8 1 C8 5 3 6 0 3 Z" fill="#FAC6DC"/></g>

    <!-- Lily pad -->
    <g id="lily">
      <circle r="16" fill="#5FA84E"/>
      <path d="M0 0 L16 -6 A17 17 0 0 0 16 6 Z" fill="#2E9FC4"/>
      <circle r="16" fill="none" stroke="#4C8F3E" stroke-width="2"/>
    </g>

    <!-- Floating lantern boat -->
    <g id="lanternBoat">
      <circle r="34" fill="url(#lanternGlow)"/>
      <path d="M-22 8 Q0 18 22 8 L16 14 Q0 20 -16 14 Z" fill="#8A5A2E"/>
      <rect x="-10" y="-16" width="20" height="24" rx="3" fill="#FFF3D6" stroke="#D4A63F" stroke-width="2"/>
      <rect x="-10" y="-3" width="20" height="2.5" fill="#E8C05C"/>
      <rect x="-4" y="-20" width="8" height="5" rx="2" fill="#8A5A2E"/>
    </g>

    <!-- Hanging paper lantern -->
    <g id="paperLantern">
      <line x1="0" y1="-14" x2="0" y2="-6" stroke="#5B4632" stroke-width="2"/>
      <ellipse cx="0" cy="6" rx="11" ry="13" fill="#FFF3D6" stroke="#C8853C" stroke-width="2"/>
      <line x1="-10" y1="2" x2="10" y2="2" stroke="#EBCB93" stroke-width="1.6"/>
      <line x1="-10" y1="10" x2="10" y2="10" stroke="#EBCB93" stroke-width="1.6"/>
      <rect x="-4" y="-8" width="8" height="4" rx="1.5" fill="#C8853C"/>
      <rect x="-3" y="19" width="6" height="4" rx="1.5" fill="#C8853C"/>
    </g>

    <!-- Dock lamp post (round glowing lamp) -->
    <g id="dockLamp">
      <ellipse cx="0" cy="4" rx="11" ry="4.5" fill="#000" opacity="0.15"/>
      <rect x="-4" y="-66" width="8" height="70" rx="3" fill="#5B4632"/>
      <rect x="-7" y="-4" width="14" height="7" rx="3" fill="#4A3826"/>
      <circle cy="-76" r="22" fill="url(#lanternGlow)"/>
      <circle cy="-76" r="11" fill="#FFF3D6" stroke="#5B4632" stroke-width="3"/>
      <rect x="-4" y="-92" width="8" height="6" rx="2" fill="#5B4632"/>
    </g>

    <!-- Mooring post -->
    <g id="post">
      <rect x="-6" y="-26" width="12" height="30" rx="4" fill="#8A5A2E"/>
      <ellipse cy="-26" rx="7" ry="3.5" fill="#A9743F"/>
    </g>

    <!-- Outrigger canoe -->
    <g id="canoe">
      <ellipse cx="0" cy="20" rx="54" ry="10" fill="#0E4A5E" opacity="0.2"/>
      <line x1="-24" y1="-4" x2="-24" y2="-28" stroke="#6E4A22" stroke-width="4"/>
      <line x1="24" y1="-4" x2="24" y2="-28" stroke="#6E4A22" stroke-width="4"/>
      <rect x="-42" y="-38" width="84" height="11" rx="5.5" fill="#7B4A2D"/>
      <path d="M-54 0 Q-30 -10 0 -10 Q30 -10 54 0 Q30 14 0 14 Q-30 14 -54 0 Z" fill="#8A5A2E" stroke="#6E4A22" stroke-width="3"/>
      <path d="M-40 0 Q0 -6 40 0 Q0 9 -40 0 Z" fill="#C08A50"/>
      <rect x="-8" y="-3" width="16" height="6" rx="2" fill="#6E4A22"/>
    </g>

    <!-- Underwater kelp / seagrass -->
    <g id="kelp" fill="none" stroke="#0E5B72" stroke-linecap="round" opacity="0.45">
      <path d="M0 0 q-10 -34 2 -66 q10 -26 2 -52" stroke-width="9"/>
      <path d="M26 6 q12 -30 2 -60 q-8 -26 4 -50" stroke-width="8"/>
      <path d="M-26 4 q-14 -28 -4 -58 q8 -22 0 -44" stroke-width="8"/>
      <path d="M48 2 q8 -24 0 -48" stroke-width="7"/>
    </g>

    <!-- Water sparkle -->
    <path id="sparkle" d="M0 -7 L1.8 -1.8 L7 0 L1.8 1.8 L0 7 L-1.8 1.8 L-7 0 L-1.8 -1.8 Z" fill="#EAFBFF" opacity="0.85"/>

    <!-- Bunting flag string (200px wide) -->
    <g id="bunting">
      <path d="M0 0 Q100 22 200 0" fill="none" stroke="#7B6A55" stroke-width="2.5"/>
      <path d="M18 4 l11 22 l11 -19 Z" fill="#E4574C"/>
      <path d="M58 10 l11 22 l11 -19 Z" fill="#F4C542"/>
      <path d="M98 12 l11 22 l11 -19 Z" fill="#4C9ED9"/>
      <path d="M138 9 l11 22 l11 -19 Z" fill="#6BBF59"/>
      <path d="M170 5 l11 22 l11 -19 Z" fill="#E4574C"/>
    </g>

    <!-- Sakura tree -->
    <g id="sakura">
      <ellipse cx="0" cy="40" rx="34" ry="10" fill="#000" opacity="0.12"/>
      <path d="M-4 40 L-4 10 Q-4 0 -14 -8 M-4 14 Q-4 4 8 -6" fill="none" stroke="#7B4A2D" stroke-width="9" stroke-linecap="round"/>
      <circle cx="-22" cy="-14" r="24" fill="#F2A0C6"/>
      <circle cx="18" cy="-12" r="24" fill="#F6B4D2"/>
      <circle cx="-2" cy="-32" r="26" fill="#F9C4DC"/>
      <circle cx="-12" cy="-36" r="9" fill="#FCDCEB"/>
      <circle cx="14" cy="-24" r="8" fill="#FCDCEB"/>
    </g>

    <!-- Palm tree -->
    <g id="palm">
      <ellipse cx="4" cy="66" rx="30" ry="9" fill="#000" opacity="0.14"/>
      <path d="M0 66 Q-4 30 6 2" fill="none" stroke="#A9743F" stroke-width="11" stroke-linecap="round"/>
      <path d="M0 66 Q-4 30 6 2" fill="none" stroke="#8A5A2E" stroke-width="11" stroke-linecap="round" stroke-dasharray="4 10"/>
      <g fill="#5FA84E">
        <path d="M6 2 Q-30 -10 -46 12 Q-22 12 6 8 Z"/>
        <path d="M6 2 Q42 -10 58 12 Q34 12 6 8 Z"/>
        <path d="M6 2 Q-20 -34 -40 -30 Q-20 -8 6 4 Z" fill="#6FB04D"/>
        <path d="M6 2 Q32 -34 52 -30 Q32 -8 6 4 Z" fill="#6FB04D"/>
        <path d="M6 2 Q4 -38 -6 -44 Q14 -30 10 2 Z" fill="#7ABB4C"/>
      </g>
      <circle cx="0" cy="6" r="5" fill="#8A5A2E"/>
      <circle cx="10" cy="8" r="5" fill="#8A5A2E"/>
    </g>

    <!-- Bush -->
    <g id="bush">
      <ellipse cx="0" cy="14" rx="26" ry="7" fill="#000" opacity="0.1"/>
      <circle cx="-14" cy="2" r="14" fill="#6FB04D"/>
      <circle cx="12" cy="3" r="13" fill="#7ABB4C"/>
      <circle cx="-1" cy="-6" r="14" fill="#8FCB5B"/>
    </g>

    <!-- Flower patch -->
    <g id="flowers">
      <circle cx="0" cy="0" r="4" fill="#E4574C"/>
      <circle cx="14" cy="6" r="4" fill="#F6A8C8"/>
      <circle cx="-12" cy="8" r="4" fill="#FFFFFF"/>
      <circle cx="4" cy="14" r="4" fill="#B07BD5"/>
      <circle cx="-4" cy="-10" r="3.5" fill="#F4C542"/>
    </g>

    <!-- Deck planter box with flowers -->
    <g id="planter">
      <g>
        <circle cx="-38" cy="-26" r="9" fill="#E4574C"/>
        <circle cx="-14" cy="-32" r="9" fill="#F6A8C8"/>
        <circle cx="10" cy="-26" r="9" fill="#F4C542"/>
        <circle cx="34" cy="-30" r="9" fill="#B07BD5"/>
        <circle cx="-26" cy="-36" r="7" fill="#6FB04D"/>
        <circle cx="22" cy="-38" r="7" fill="#6FB04D"/>
        <circle cx="46" cy="-24" r="7" fill="#6FB04D"/>
      </g>
      <rect x="-60" y="-22" width="120" height="40" rx="8" fill="#8F5A38" stroke="#6E4A22" stroke-width="3"/>
      <rect x="-60" y="-22" width="120" height="10" rx="5" fill="#A9743F"/>
    </g>

    <!-- Rock -->
    <g id="rock">
      <ellipse cx="0" cy="10" rx="18" ry="6" fill="#000" opacity="0.1"/>
      <path d="M-16 10 Q-18 -6 -4 -10 Q12 -14 16 0 Q18 10 6 11 Z" fill="#9AA7B2"/>
      <path d="M-10 4 Q-8 -6 2 -7" fill="none" stroke="#C0CBD4" stroke-width="3" stroke-linecap="round"/>
    </g>

    <!-- Sea boulder (like the screenshot's water rocks) -->
    <g id="seaRock">
      <ellipse cx="0" cy="22" rx="44" ry="12" fill="#0E4A5E" opacity="0.25"/>
      <path d="M-40 20 Q-46 -14 -14 -26 Q20 -36 38 -8 Q46 14 20 22 Q-10 28 -40 20 Z" fill="#8D9AA5"/>
      <path d="M-30 4 Q-24 -16 0 -20 Q18 -22 28 -8" fill="none" stroke="#C6D0D8" stroke-width="6" stroke-linecap="round"/>
      <path d="M-36 20 Q0 30 36 16" fill="none" stroke="#5F7B8C" stroke-width="4" opacity="0.6"/>
    </g>

    <!-- ===== Boardwalk deck union (reused for shadow / rim / top / outline) ===== -->
    <g id="deckShapes">
      <rect x="520" y="300" width="180" height="340" rx="30"/>
      <rect x="600" y="440" width="340" height="260" rx="40"/>
      <circle cx="1040" cy="830" r="250"/>
      <rect x="1180" y="700" width="260" height="110" rx="30"/>
      <rect x="1360" y="620" width="420" height="320" rx="40"/>
      <rect x="1080" y="1010" width="340" height="240" rx="40"/>
      <rect x="300" y="1000" width="400" height="250" rx="40"/>
      <polygon points="840,960 950,1060 760,1180 630,1080"/>
    </g>
    <!-- Plank texture pattern (fills deck shapes exactly, no clipping needed) -->
    <pattern id="planks" width="48" height="48" patternUnits="userSpaceOnUse">
      <path d="M0 2 H48 M0 26 H48" stroke="#A9743F" stroke-width="2.5" fill="none" opacity="0.75"/>
      <path d="M12 2 V26" stroke="#A9743F" stroke-width="2" opacity="0.4"/>
      <path d="M36 26 V50" stroke="#A9743F" stroke-width="2" opacity="0.4"/>
    </pattern>
  </defs>

  <!-- ================= OCEAN ================= -->
  <rect x="0" y="0" width="2000" height="1400" fill="url(#water)"/>
  <!-- deeper south water -->
  <path d="M0 1150 Q500 1100 1000 1150 Q1500 1200 2000 1130 L2000 1400 L0 1400 Z" fill="#1F86A8" opacity="0.5"/>
  <!-- shallow bright patches around the boardwalk -->
  <g fill="#7ADCE8" opacity="0.4">
    <ellipse cx="760" cy="560" rx="420" ry="260"/>
    <ellipse cx="1060" cy="850" rx="420" ry="300"/>
    <ellipse cx="1580" cy="760" rx="340" ry="240"/>
    <ellipse cx="500" cy="1110" rx="320" ry="200"/>
    <ellipse cx="610" cy="380" rx="220" ry="160"/>
  </g>

  <!-- wave shimmer -->
  <g stroke="#8FDCEC" stroke-width="4" stroke-linecap="round" opacity="0.6" fill="none">
    <path d="M120 90 q30 -10 60 0"/>
    <path d="M420 60 q30 -10 60 0"/>
    <path d="M760 130 q30 -10 60 0"/>
    <path d="M1060 70 q30 -10 60 0"/>
    <path d="M1380 120 q30 -10 60 0"/>
    <path d="M1720 80 q30 -10 60 0"/>
    <path d="M260 200 q30 -10 60 0"/>
    <path d="M950 210 q30 -10 60 0"/>
    <path d="M1620 220 q30 -10 60 0"/>
    <path d="M100 520 q30 -10 60 0"/>
    <path d="M160 780 q30 -10 60 0"/>
    <path d="M90 1020 q30 -10 60 0"/>
    <path d="M210 1280 q30 -10 60 0"/>
    <path d="M840 1320 q30 -10 60 0"/>
    <path d="M1180 1350 q30 -10 60 0"/>
    <path d="M1560 1300 q30 -10 60 0"/>
    <path d="M1880 1160 q30 -10 60 0"/>
    <path d="M1900 420 q30 -10 60 0"/>
    <path d="M1840 640 q30 -10 60 0"/>
    <path d="M1300 340 q30 -10 60 0"/>
  </g>

  <!-- sparkles -->
  <use href="#sparkle" x="340" y="330"/>
  <use href="#sparkle" x="880" y="280"/>
  <use href="#sparkle" x="1500" y="300"/>
  <use href="#sparkle" x="1900" y="540"/>
  <use href="#sparkle" x="150" y="640"/>
  <use href="#sparkle" x="120" y="1180"/>
  <use href="#sparkle" x="1000" y="1330"/>
  <use href="#sparkle" x="1740" y="1240"/>

  <!-- underwater kelp + seagrass shadows -->
  <use href="#kelp" x="160" y="1370"/>
  <use href="#kelp" x="330" y="1390"/>
  <use href="#kelp" x="900" y="1390"/>
  <use href="#kelp" x="1740" y="1380"/>
  <use href="#kelp" x="1920" y="1240"/>
  <use href="#kelp" x="120" y="760"/>
  <use href="#kelp" x="1880" y="1000"/>
  <g fill="#0B3F52" opacity="0.25">
    <ellipse cx="480" cy="1310" rx="230" ry="42"/>
    <ellipse cx="1240" cy="1310" rx="210" ry="38"/>
    <ellipse cx="1600" cy="990" rx="230" ry="38"/>
    <ellipse cx="1010" cy="1130" rx="180" ry="34"/>
  </g>

  <!-- sea boulders, right side -->
  <g>
    <use href="#seaRock" x="1870" y="470"/>
    <use href="#seaRock" x="1790" y="530" transform="scale(1)"/>
    <use href="#rock" x="1930" y="560"/>
    <use href="#seaRock" x="1900" y="880"/>
    <use href="#rock" x="1820" y="930"/>
  </g>

  <!-- Rocky sakura islet, top-left -->
  <g>
    <ellipse cx="240" cy="150" rx="150" ry="64" fill="#8D9AA5"/>
    <ellipse cx="240" cy="138" rx="150" ry="58" fill="#AEBAC4"/>
    <ellipse cx="240" cy="130" rx="118" ry="42" fill="#C6D0D8"/>
    <use href="#rock" x="140" y="128"/>
    <use href="#rock" x="336" y="140"/>
    <use href="#sakura" x="240" y="96"/>
    <use href="#bush" x="168" y="150"/>
  </g>

  <!-- Petals drifting on the water -->
  <g opacity="0.95">
    <use href="#petal" x="480" y="90"/><use href="#petalLight" x="520" y="120"/><use href="#petal" x="560" y="70"/>
    <use href="#petal" x="740" y="170"/><use href="#petalLight" x="820" y="80"/><use href="#petal" x="880" y="140"/>
    <use href="#petalLight" x="1080" y="110"/><use href="#petal" x="1150" y="60"/><use href="#petalLight" x="1220" y="150"/>
    <use href="#petal" x="1290" y="90"/><use href="#petalLight" x="1350" y="180"/><use href="#petal" x="1430" y="70"/>
    <use href="#petalLight" x="1500" y="140"/><use href="#petal" x="1570" y="100"/><use href="#petalLight" x="1660" y="170"/>
    <use href="#petal" x="1730" y="90"/><use href="#petalLight" x="1800" y="150"/><use href="#petal" x="1880" y="110"/>
    <use href="#petalLight" x="380" y="120"/><use href="#petal" x="120" y="420"/><use href="#petalLight" x="80" y="880"/>
    <use href="#petal" x="180" y="1140"/><use href="#petalLight" x="1900" y="700"/><use href="#petal" x="1930" y="1100"/>
    <use href="#petalLight" x="700" y="1330"/><use href="#petal" x="1400" y="1340"/>
  </g>

  <!-- Lily pads near the islet -->
  <use href="#lily" x="420" y="220"/>
  <use href="#lily" x="480" y="255"/>
  <use href="#lily" x="1690" y="130"/>

  <!-- Floating lantern boats -->
  <use href="#lanternBoat" x="850" y="170"/>
  <use href="#lanternBoat" x="1150" y="110"/>
  <use href="#lanternBoat" x="1420" y="210"/>
  <use href="#lanternBoat" x="1750" y="130"/>

  <!-- Moored outrigger canoes -->
  <use href="#canoe" x="420" y="480"/>
  <use href="#canoe" x="800" y="330"/>
  <use href="#canoe" x="1880" y="680"/>

  <!-- ================= BOARDWALK DECKS ================= -->
  <!-- water shadow under decking -->
  <use href="#deckShapes" transform="translate(0,32)" fill="#15718F" opacity="0.35"/>
  <!-- wooden rim / thickness -->
  <use href="#deckShapes" transform="translate(0,14)" fill="#8A5A2E"/>
  <!-- deck top -->
  <use href="#deckShapes" fill="#C08A50"/>
  <!-- plank texture -->
  <use href="#deckShapes" fill="url(#planks)"/>
  <!-- worn lighter planks (all positioned within decks) -->
  <g stroke="#D3A768" stroke-width="8" opacity="0.45" stroke-linecap="round">
    <path d="M640 500 H860"/>
    <path d="M960 764 H1180"/>
    <path d="M1420 690 H1660"/>
    <path d="M380 1092 H560"/>
    <path d="M1140 1116 H1330"/>
    <path d="M556 400 H664"/>
    <path d="M900 950 H1120"/>
  </g>
  <!-- deck edge outline -->
  <use href="#deckShapes" fill="none" stroke="#8A5A2E" stroke-width="5"/>

  <!-- stilts under deck edges -->
  <g fill="#6E4A22">
    <rect x="360" y="1258" width="12" height="36" rx="3"/>
    <rect x="460" y="1260" width="12" height="36" rx="3"/>
    <rect x="560" y="1258" width="12" height="36" rx="3"/>
    <rect x="655" y="1256" width="12" height="34" rx="3"/>
    <rect x="1120" y="1258" width="12" height="36" rx="3"/>
    <rect x="1220" y="1260" width="12" height="36" rx="3"/>
    <rect x="1320" y="1256" width="12" height="34" rx="3"/>
    <rect x="985" y="1088" width="12" height="36" rx="3"/>
    <rect x="1400" y="950" width="12" height="34" rx="3"/>
    <rect x="1500" y="952" width="12" height="34" rx="3"/>
    <rect x="1620" y="952" width="12" height="34" rx="3"/>
    <rect x="1720" y="950" width="12" height="34" rx="3"/>
    <rect x="1320" y="820" width="12" height="30" rx="3"/>
  </g>

  <!-- mooring posts along deck edges -->
  <use href="#post" x="536" y="330"/>
  <use href="#post" x="684" y="330"/>
  <use href="#post" x="616" y="676"/>
  <use href="#post" x="1195" y="726"/>
  <use href="#post" x="1195" y="796"/>
  <use href="#post" x="1764" y="650"/>
  <use href="#post" x="1764" y="916"/>
  <use href="#post" x="320" y="1024"/>
  <use href="#post" x="320" y="1226"/>
  <use href="#post" x="680" y="1226"/>
  <use href="#post" x="1100" y="1226"/>
  <use href="#post" x="1400" y="1226"/>
  <use href="#post" x="1400" y="1034"/>

  <!-- ================= LANTERN LAUNCH DOCK (stop: 600,336) ================= -->
  <g>
    <rect x="540" y="330" width="150" height="40" rx="8" fill="#A9743F"/>
    <rect x="540" y="330" width="150" height="10" rx="5" fill="#C08A50"/>
    <rect x="552" y="296" width="8" height="40" fill="#8A5A2E"/>
    <rect x="672" y="296" width="8" height="40" fill="#8A5A2E"/>
    <path d="M556 300 Q616 282 676 300" fill="none" stroke="#8A5A2E" stroke-width="5"/>
    <use href="#paperLantern" x="580" y="316"/>
    <use href="#paperLantern" x="648" y="316"/>
    <rect x="600" y="340" width="18" height="20" rx="3" fill="#FFF3D6" stroke="#D4A63F" stroke-width="2"/>
    <rect x="622" y="342" width="16" height="18" rx="3" fill="#FFE9A8" stroke="#D4A63F" stroke-width="2"/>
  </g>

  <!-- ================= MATCHA STALL (stop: 760,560) ================= -->
  <g>
    <ellipse cx="760" cy="618" rx="86" ry="14" fill="#000" opacity="0.12"/>
    <rect x="700" y="560" width="120" height="52" rx="6" fill="#7A9E63"/>
    <rect x="706" y="566" width="108" height="40" rx="5" fill="#94B87B"/>
    <path d="M694 560 L826 560 L840 534 L680 534 Z" fill="#5F8A4C"/>
    <g fill="#FDFBF3">
      <path d="M694 560 l16 0 l-8 18 Z"/><path d="M726 560 l16 0 l-8 18 Z"/>
      <path d="M758 560 l16 0 l-8 18 Z"/><path d="M790 560 l16 0 l-8 18 Z"/>
    </g>
    <circle cx="760" cy="586" r="13" fill="#FDFBF3"/>
    <path d="M754 582 a7 7 0 0 0 12 6 q-4 4 -9 2 a7 7 0 0 1 -3 -8 Z" fill="#5F8A4C"/>
    <rect x="710" y="612" width="10" height="20" fill="#4C6E3B"/>
    <rect x="800" y="612" width="10" height="20" fill="#4C6E3B"/>
  </g>

  <!-- ================= HANGING WELCOME SIGN ================= -->
  <g>
    <rect x="804" y="590" width="12" height="112" rx="4" fill="#6E4A22"/>
    <rect x="964" y="590" width="12" height="112" rx="4" fill="#6E4A22"/>
    <rect x="792" y="578" width="196" height="16" rx="6" fill="#8A5A2E"/>
    <line x1="840" y1="594" x2="840" y2="610" stroke="#5B4632" stroke-width="4"/>
    <line x1="940" y1="594" x2="940" y2="610" stroke="#5B4632" stroke-width="4"/>
    <rect x="795" y="608" width="190" height="62" rx="9" fill="#7B4A2D" stroke="#5B3A20" stroke-width="4"/>
    <text x="890" y="634" text-anchor="middle" font-family="Trebuchet MS, Verdana, sans-serif" font-size="21" font-weight="bold" fill="#F4E6C8">DANA'S</text>
    <text x="890" y="660" text-anchor="middle" font-family="Trebuchet MS, Verdana, sans-serif" font-size="17" font-weight="bold" fill="#F4E6C8">SABAW FESTIVAL</text>
    <use href="#paperLantern" x="810" y="606"/>
    <use href="#paperLantern" x="970" y="606"/>
  </g>

  <!-- ================= FESTIVAL STAGE + GRAND PRIZE (stop: 1040,812) ================= -->
  <g>
    <ellipse cx="1040" cy="880" rx="150" ry="24" fill="#000" opacity="0.12"/>
    <rect x="900" y="790" width="280" height="76" rx="12" fill="#A9743F"/>
    <rect x="900" y="790" width="280" height="18" rx="9" fill="#C08A50"/>
    <g stroke="#8A5A2E" stroke-width="3" opacity="0.7">
      <line x1="940" y1="812" x2="940" y2="862"/>
      <line x1="1000" y1="812" x2="1000" y2="862"/>
      <line x1="1060" y1="812" x2="1060" y2="862"/>
      <line x1="1120" y1="812" x2="1120" y2="862"/>
    </g>
    <line x1="912" y1="788" x2="912" y2="688" stroke="#7B6A55" stroke-width="6"/>
    <line x1="1168" y1="788" x2="1168" y2="688" stroke="#7B6A55" stroke-width="6"/>
    <use href="#bunting" x="920" y="684"/>
    <use href="#paperLantern" x="912" y="712"/>
    <use href="#paperLantern" x="1168" y="712"/>
    <!-- balloons -->
    <g>
      <ellipse cx="892" cy="742" rx="13" ry="16" fill="#E4574C"/>
      <ellipse cx="874" cy="726" rx="13" ry="16" fill="#F4C542"/>
      <ellipse cx="884" cy="760" rx="12" ry="15" fill="#4C9ED9"/>
      <path d="M886 776 q4 14 -2 22 M876 742 q0 12 6 22 M892 758 q2 10 -4 22" stroke="#7B6A55" stroke-width="2" fill="none"/>
      <ellipse cx="1192" cy="742" rx="13" ry="16" fill="#6BBF59"/>
      <ellipse cx="1206" cy="726" rx="13" ry="16" fill="#F6A8C8"/>
      <path d="M1194 758 q0 14 -2 24 M1204 742 q2 14 -2 26" stroke="#7B6A55" stroke-width="2" fill="none"/>
    </g>
  </g>

  <!-- ================= DANA'S STILT BEACH HOUSE (stop: 1560,728) ================= -->
  <g>
    <ellipse cx="1580" cy="850" rx="230" ry="34" fill="#000" opacity="0.12"/>
    <!-- porch deck -->
    <rect x="1400" y="760" width="360" height="92" rx="10" fill="#B98B54"/>
    <rect x="1400" y="760" width="360" height="14" rx="7" fill="#D3A768"/>
    <g stroke="#8A5A2E" stroke-width="3" opacity="0.6">
      <line x1="1450" y1="776" x2="1450" y2="848"/>
      <line x1="1510" y1="776" x2="1510" y2="848"/>
      <line x1="1570" y1="776" x2="1570" y2="848"/>
      <line x1="1630" y1="776" x2="1630" y2="848"/>
      <line x1="1690" y1="776" x2="1690" y2="848"/>
    </g>
    <!-- bamboo rail -->
    <g stroke="#D4A63F" stroke-width="7" stroke-linecap="round">
      <line x1="1408" y1="752" x2="1408" y2="800"/>
      <line x1="1456" y1="752" x2="1456" y2="800"/>
      <line x1="1700" y1="752" x2="1700" y2="800"/>
      <line x1="1748" y1="752" x2="1748" y2="800"/>
      <line x1="1400" y1="756" x2="1470" y2="756"/>
      <line x1="1690" y1="756" x2="1760" y2="756"/>
    </g>
    <!-- steps -->
    <rect x="1540" y="852" width="90" height="16" rx="6" fill="#C08A50"/>
    <rect x="1550" y="868" width="70" height="14" rx="6" fill="#B07A42"/>

    <!-- house body -->
    <rect x="1440" y="600" width="280" height="168" rx="10" fill="#F4EFE4"/>
    <rect x="1440" y="600" width="280" height="168" rx="10" fill="none" stroke="#D4A63F" stroke-width="6"/>
    <!-- windows -->
    <g>
      <rect x="1462" y="672" width="58" height="52" rx="6" fill="#7B4A2D"/>
      <rect x="1468" y="678" width="46" height="18" rx="3" fill="#5FC3DA"/>
      <rect x="1468" y="700" width="46" height="18" rx="3" fill="#4C9ED9"/>
      <rect x="1640" y="672" width="58" height="52" rx="6" fill="#7B4A2D"/>
      <rect x="1646" y="678" width="46" height="18" rx="3" fill="#5FC3DA"/>
      <rect x="1646" y="700" width="46" height="18" rx="3" fill="#4C9ED9"/>
    </g>
    <!-- arched door -->
    <path d="M1548 768 L1548 692 A32 32 0 0 1 1612 692 L1612 768 Z" fill="#7B4A2D"/>
    <path d="M1556 768 L1556 696 A24 24 0 0 1 1604 696 L1604 768 Z" fill="#8F5A38"/>
    <line x1="1580" y1="700" x2="1580" y2="764" stroke="#7B4A2D" stroke-width="4"/>
    <circle cx="1592" cy="734" r="4" fill="#F0CA6B"/>
    <!-- doormat -->
    <rect x="1552" y="770" width="56" height="14" rx="5" fill="#E8C05C"/>

    <!-- thatched roof -->
    <path d="M1412 620 Q1580 528 1748 620 L1720 648 Q1580 570 1440 648 Z" fill="url(#thatch)"/>
    <path d="M1492 640 Q1580 548 1668 640 L1668 660 L1492 660 Z" fill="#F4EFE4"/>
    <path d="M1484 648 Q1580 540 1676 648" fill="none" stroke="#D4A63F" stroke-width="10"/>
    <path d="M1500 570 Q1580 470 1660 570 Q1620 546 1580 544 Q1540 546 1500 570 Z" fill="url(#thatch)"/>
    <path d="M1508 566 Q1580 486 1652 566" fill="none" stroke="#C8963B" stroke-width="5" opacity="0.7"/>
    <path d="M1568 470 L1592 470 L1584 448 Z" fill="#4C9ED9"/>
    <line x1="1580" y1="470" x2="1580" y2="544" stroke="#8A5A2E" stroke-width="6"/>
    <g stroke="#C8963B" stroke-width="3" opacity="0.6">
      <line x1="1470" y1="612" x2="1462" y2="636"/>
      <line x1="1530" y1="586" x2="1524" y2="612"/>
      <line x1="1630" y1="586" x2="1636" y2="612"/>
      <line x1="1692" y1="612" x2="1700" y2="636"/>
    </g>
    <!-- bougainvillea on roof edge -->
    <g>
      <circle cx="1452" cy="636" r="14" fill="#D667B7"/>
      <circle cx="1478" cy="646" r="12" fill="#F09CCB"/>
      <circle cx="1502" cy="652" r="11" fill="#D667B7"/>
      <circle cx="1660" cy="650" r="12" fill="#F09CCB"/>
      <circle cx="1686" cy="642" r="13" fill="#D667B7"/>
      <circle cx="1710" cy="632" r="12" fill="#F09CCB"/>
      <circle cx="1466" cy="628" r="8" fill="#6FB04D"/>
      <circle cx="1698" cy="624" r="8" fill="#6FB04D"/>
    </g>
    <!-- shade sail -->
    <path d="M1580 470 L1454 420 L1500 500 Z" fill="#4FAECB"/>
    <path d="M1580 470 L1454 420" stroke="#2E86AB" stroke-width="4"/>

    <!-- mailbox -->
    <g>
      <rect x="1500" y="880" width="10" height="46" fill="#8A5A2E"/>
      <path d="M1478 856 h54 a14 14 0 0 1 0 28 h-54 a14 14 0 0 1 0 -28 Z" fill="#D96A50"/>
      <path d="M1478 856 a14 14 0 0 0 0 28" fill="#B8563F"/>
      <rect x="1528" y="840" width="6" height="20" fill="#F0CA6B"/>
      <path d="M1534 840 l14 4 l-14 6 Z" fill="#E4574C"/>
    </g>
    <!-- storage chest by porch -->
    <g>
      <rect x="1690" y="866" width="64" height="44" rx="8" fill="#8F5A38"/>
      <rect x="1690" y="866" width="64" height="16" rx="8" fill="#A9743F"/>
      <rect x="1716" y="878" width="12" height="16" rx="3" fill="#F0CA6B"/>
    </g>
    <!-- potted plant -->
    <g>
      <path d="M1680 742 q-14 -26 6 -38 q-2 20 8 28 q10 -22 26 -20 q-8 20 -20 30 Z" fill="#5FA84E"/>
      <path d="M1678 742 h40 l-6 24 h-28 Z" fill="#B8563F"/>
    </g>
  </g>

  <!-- ================= BLOSSOM GARDEN DECK (stop: 500,1120) ================= -->
  <g>
    <!-- potted sakura -->
    <rect x="330" y="1108" width="84" height="42" rx="8" fill="#B8563F" stroke="#96432F" stroke-width="3"/>
    <use href="#sakura" x="372" y="1072"/>
    <!-- planter boxes -->
    <use href="#planter" x="600" y="1090"/>
    <use href="#planter" x="430" y="1206"/>
    <use href="#planter" x="600" y="1206"/>
    <use href="#flowers" x="530" y="1050"/>
    <!-- garden arch -->
    <g>
      <line x1="480" y1="1048" x2="480" y2="984" stroke="#B8563F" stroke-width="10"/>
      <line x1="560" y1="1048" x2="560" y2="984" stroke="#B8563F" stroke-width="10"/>
      <path d="M462 984 Q520 962 578 984" fill="none" stroke="#B8563F" stroke-width="12" stroke-linecap="round"/>
      <use href="#paperLantern" x="520" y="1002"/>
    </g>
  </g>

  <!-- ================= FORTUNE BOOTH (stop: 1240,1120) ================= -->
  <g>
    <ellipse cx="1240" cy="1188" rx="110" ry="20" fill="#000" opacity="0.12"/>
    <path d="M1150 1188 L1170 1064 Q1240 1030 1310 1064 L1330 1188 Z" fill="#8465AC"/>
    <path d="M1150 1188 L1170 1064 Q1240 1030 1310 1064 L1330 1188 Z" fill="none" stroke="#6B4E92" stroke-width="5"/>
    <g fill="#A98BC9">
      <path d="M1170 1064 L1186 1188 L1214 1188 L1200 1054 Z"/>
      <path d="M1310 1064 L1294 1188 L1266 1188 L1280 1054 Z"/>
    </g>
    <path d="M1222 1188 L1222 1110 A18 18 0 0 1 1258 1110 L1258 1188 Z" fill="#4A3768"/>
    <circle cx="1240" cy="1044" r="10" fill="#F4C542"/>
    <path d="M1240 1028 l4 8 l8 1 l-6 6 l2 9 l-8 -5 l-8 5 l2 -9 l-6 -6 l8 -1 Z" fill="#F4C542"/>
    <use href="#paperLantern" x="1152" y="1088"/>
    <use href="#paperLantern" x="1328" y="1088"/>
  </g>

  <!-- ================= POTTED PALMS ON DECK ================= -->
  <g>
    <rect x="842" y="530" width="60" height="32" rx="7" fill="#B8563F" stroke="#96432F" stroke-width="3"/>
    <use href="#palm" x="868" y="468"/>
    <rect x="1692" y="734" width="60" height="32" rx="7" fill="#B8563F" stroke="#96432F" stroke-width="3"/>
    <use href="#palm" x="1718" y="672"/>
    <rect x="1102" y="1252" width="60" height="32" rx="7" fill="#B8563F" stroke="#96432F" stroke-width="3"/>
    <use href="#palm" x="1128" y="1190"/>
  </g>

  <!-- ================= DOCK LAMPS ================= -->
  <use href="#dockLamp" x="628" y="474"/>
  <use href="#dockLamp" x="915" y="474"/>
  <use href="#dockLamp" x="1218" y="664"/>
  <use href="#dockLamp" x="874" y="988"/>
  <use href="#dockLamp" x="1208" y="988"/>
  <use href="#dockLamp" x="1740" y="664"/>
  <use href="#dockLamp" x="1740" y="884"/>
  <use href="#dockLamp" x="1112" y="1044"/>
  <use href="#dockLamp" x="1388" y="1044"/>
  <use href="#dockLamp" x="342" y="1044"/>
  <use href="#dockLamp" x="660" y="1044"/>
  <use href="#dockLamp" x="560" y="620"/>

  <!-- petals blown onto the boardwalk -->
  <g opacity="0.8">
    <use href="#petalLight" x="700" y="480"/><use href="#petal" x="1000" y="740"/><use href="#petalLight" x="1120" y="900"/>
    <use href="#petal" x="1460" y="700"/><use href="#petalLight" x="420" y="1080"/><use href="#petal" x="640" y="1140"/>
    <use href="#petalLight" x="1300" y="1180"/><use href="#petal" x="960" y="1020"/><use href="#petalLight" x="600" y="380"/>
  </g>
</svg>
