<svg xmlns="http://www.w3.org/2000/svg" viewBox="0 0 300 340" width="300" height="340">
  <defs>
    <clipPath id="portraitCirclePaul">
      <circle cx="150" cy="172" r="140"/>
    </clipPath>
    <linearGradient id="bgGradPaul" x1="0%" y1="0%" x2="100%" y2="100%">
      <stop offset="0%" stop-color="#FEF3C7"/>
      <stop offset="100%" stop-color="#FDE68A"/>
    </linearGradient>
    <filter id="softShadowPaul" x="-10%" y="-10%" width="120%" height="120%">
      <feDropShadow dx="0" dy="4" stdDeviation="4" flood-color="#0F172A" flood-opacity="0.15"/>
    </filter>
  </defs>

  <!-- Warm sunny amber/yellow backdrop circle -->
  <circle cx="150" cy="172" r="140" fill="url(#bgGradPaul)"/>

  <!-- Decorative party confetti & sparkles -->
  <g clip-path="url(#portraitCirclePaul)" opacity="0.6">
    <circle cx="60" cy="100" r="5" fill="#3B82F6"/>
    <circle cx="230" cy="80" r="4" fill="#EF4444"/>
    <rect x="40" y="220" width="8" height="8" rx="2" fill="#10B981" transform="rotate(25 40 220)"/>
    <rect x="240" y="230" width="10" height="6" rx="2" fill="#8B5CF6" transform="rotate(-15 240 230)"/>
    <path d="M 80 160 Q 85 155 90 160 Q 85 165 80 160 Z" fill="#F59E0B"/>
    <path d="M 220 160 Q 225 155 230 160 Q 225 165 220 160 Z" fill="#3B82F6"/>
  </g>

  <!-- MAIN PORTRAIT CONTENT -->
  <g clip-path="url(#portraitCirclePaul)">
    <!-- Outfit: Warm Brown striped fleece cardigan over dark navy tee -->
    <path d="M 85 344 Q 95 260 120 245 L 180 245 Q 205 260 215 344 Z" fill="#1C2833" stroke="#101820" stroke-width="2"/>
    
    <!-- Warm Brown Cardigan Jacket -->
    <path d="M 45 344 Q 55 250 110 236 L 190 236 Q 245 250 255 344 Z" fill="#5C3A21" stroke="#101820" stroke-width="2.2" stroke-linejoin="round" filter="url(#softShadowPaul)"/>
    <!-- Caramel Brown Stripes -->
    <path d="M 48 260 h65" stroke="#9C6B3B" stroke-width="8"/>
    <path d="M 187 260 h65" stroke="#9C6B3B" stroke-width="8"/>
    <path d="M 46 295 h67" stroke="#9C6B3B" stroke-width="8"/>
    <path d="M 187 295 h67" stroke="#9C6B3B" stroke-width="8"/>
    <path d="M 45 330 h69" stroke="#9C6B3B" stroke-width="8"/>
    <path d="M 186 330 h69" stroke="#9C6B3B" stroke-width="8"/>

    <!-- Jacket Collar & Placket Trim -->
    <path d="M 110 236 L 110 344" stroke="#1C2833" stroke-width="12"/>
    <path d="M 190 236 L 190 344" stroke="#1C2833" stroke-width="12"/>
    <path d="M 110 236 L 140 275 L 125 285 L 95 248 Z" fill="#4A2E18" stroke="#101820" stroke-width="1.8"/>
    <path d="M 190 236 L 160 275 L 175 285 L 205 248 Z" fill="#4A2E18" stroke="#101820" stroke-width="1.8"/>

    <!-- Neck -->
    <path d="M 136 190 L 136 245 Q 150 250 164 245 L 164 190 Z" fill="#F3CBA5"/>
    <path d="M 136 205 Q 150 217 164 205 L 164 190 L 136 190 Z" fill="#E0AF83" opacity="0.65"/>

    <!-- Face & Head -->
    <path d="M 104 130
             C 104 85 124 65 150 65
             C 176 65 196 85 196 130
             C 196 160 188 182 172 196
             C 164 203 156 207 150 207
             C 144 207 136 203 128 196
             C 112 182 104 160 104 130 Z"
          fill="#F3CBA5" stroke="#101820" stroke-width="2"/>

    <!-- Ears -->
    <ellipse cx="101" cy="146" rx="7.5" ry="12" fill="#F3CBA5" stroke="#101820" stroke-width="1.8"/>
    <ellipse cx="199" cy="146" rx="7.5" ry="12" fill="#F3CBA5" stroke="#101820" stroke-width="1.8"/>

    <!-- Jawline shadow under chin -->
    <path d="M 128 195 Q 150 208 172 195 Q 160 202 150 202 Q 140 202 128 195 Z" fill="#E0AF83" opacity="0.5"/>

    <!-- Subtle blush -->
    <ellipse cx="118" cy="164" rx="12" ry="6.5" fill="#F2967C" opacity="0.45"/>
    <ellipse cx="182" cy="164" rx="12" ry="6.5" fill="#F2967C" opacity="0.45"/>

    <!-- Eyebrows -->
    <path d="M 110 120 Q 123 112 137 118" fill="none" stroke="#1C140E" stroke-width="4" stroke-linecap="round"/>
    <path d="M 190 120 Q 177 112 163 118" fill="none" stroke="#1C140E" stroke-width="4" stroke-linecap="round"/>

    <!-- Eyes -->
    <path d="M 112 142 Q 125 133 138 141 Q 137 154 125 155 Q 114 154 112 142 Z" fill="#FFFFFF"/>
    <circle cx="127" cy="145" r="7.5" fill="#3B2616"/>
    <circle cx="127" cy="145" r="4" fill="#110B06"/>
    <circle cx="129.5" cy="142" r="2.2" fill="#FFFFFF"/>
    <circle cx="124" cy="148" r="1" fill="#FFFFFF"/>
    <path d="M 110 141 Q 124 130 140 139" fill="none" stroke="#110B06" stroke-width="3" stroke-linecap="round"/>

    <path d="M 188 142 Q 175 133 162 141 Q 163 154 175 155 Q 186 154 188 142 Z" fill="#FFFFFF"/>
    <circle cx="173" cy="145" r="7.5" fill="#3B2616"/>
    <circle cx="173" cy="145" r="4" fill="#110B06"/>
    <circle cx="175.5" cy="142" r="2.2" fill="#FFFFFF"/>
    <circle cx="170" cy="148" r="1" fill="#FFFFFF"/>
    <path d="M 190 141 Q 176 130 160 139" fill="none" stroke="#110B06" stroke-width="3" stroke-linecap="round"/>

    <!-- Nose -->
    <path d="M 148 156 Q 146 166 150 169 Q 153 171 156 168" fill="none" stroke="#BD7752" stroke-width="2.2" stroke-linecap="round"/>

    <!-- Cheerful grin with braces -->
    <path d="M 125 178 Q 150 198 175 178 Z" fill="#FFFFFF" stroke="#A83C2C" stroke-width="2" stroke-linejoin="round"/>
    <path d="M 128 183 Q 150 191 172 183" stroke="#B0BEC5" stroke-width="2.5" fill="none"/>
    <circle cx="138" cy="184.5" r="1.5" fill="#90A4AE"/>
    <circle cx="150" cy="186.5" r="1.5" fill="#90A4AE"/>
    <circle cx="162" cy="184.5" r="1.5" fill="#90A4AE"/>

    <!-- Curly hair with bangs -->
    <!-- Curly crown clusters -->
    <circle cx="110" cy="85" r="16" fill="#1C140E" stroke="#101820" stroke-width="2"/>
    <circle cx="125" cy="65" r="18" fill="#1C140E" stroke="#101820" stroke-width="2"/>
    <circle cx="150" cy="60" r="19" fill="#1C140E" stroke="#101820" stroke-width="2"/>
    <circle cx="175" cy="65" r="18" fill="#1C140E" stroke="#101820" stroke-width="2"/>
    <circle cx="190" cy="85" r="16" fill="#1C140E" stroke="#101820" stroke-width="2"/>
    <circle cx="102" cy="105" r="14" fill="#1C140E" stroke="#101820" stroke-width="2"/>
    <circle cx="198" cy="105" r="14" fill="#1C140E" stroke="#101820" stroke-width="2"/>
    <path d="M 102 110 C 95 65 130 50 150 50 C 170 50 205 65 198 110 Z" fill="#1C140E"/>

    <!-- Curly/wavy bangs drooping across forehead -->
    <path d="M 102 110 Q 116 126 130 112 Q 144 128 158 112 Q 172 128 186 112 Q 194 122 198 110 C 198 95 180 80 150 80 C 120 80 102 95 102 110 Z" fill="#1C140E" stroke="#101820" stroke-width="2" stroke-linejoin="round"/>
    <!-- Curl swirl lines in hair -->
    <path d="M 118 110 Q 124 118 130 110" stroke="#38291D" stroke-width="2.5" fill="none"/>
    <path d="M 146 110 Q 152 118 158 110" stroke="#38291D" stroke-width="2.5" fill="none"/>
    <path d="M 174 110 Q 180 118 186 110" stroke="#38291D" stroke-width="2.5" fill="none"/>

    <!-- Sparkles -->
    <g fill="#FFD700" opacity="0.85">
      <circle cx="230" cy="120" r="3" fill="#3B82F6"/>
      <path d="M 75 110 Q 75 104 69 104 Q 75 104 75 98 Q 75 104 81 104 Q 75 104 75 110 Z"/>
    </g>
  </g>

  <!-- Outer frame rings -->
  <circle cx="150" cy="172" r="140" fill="none" stroke="#FDE68A" stroke-width="6"/>
  <circle cx="150" cy="172" r="143.5" fill="none" stroke="#FBBF24" stroke-width="1.5"/>
</svg>
